<svg width="93" height="89" viewBox="0 0 93 89" fill="none" xmlns="http://www.w3.org/2000/svg">
<path d="M38.6017 60.4706V82H51.3559V59.5735H61.4407L62.0339 58.6765L65 47.0147H51.3559V38.9412C51.3559 33.4392 52.7401 32.4624 53.4322 32.6618H61.4407V21H55.2119C40.0254 22.6745 37.8107 39.0408 38.6017 47.0147H30V60.4706H38.6017Z" stroke="black" stroke-width="4"/>
<path d="M89.2206 72C88.182 77 84.0276 86.6 75.7188 85H13.9219C10.1137 84.6667 2.6011 81.6 3.01654 72V16.5C2.84344 13.3333 4.78217 6.2 13.9219 3H74.1609C77.9691 3.16667 86.1048 5.8 88.182 15L88.7013 43.5" stroke="black" stroke-width="6"/>
<rect x="86" y="51" width="6" height="8" fill="#050505"/>
<path d="M89.5 63C89.6667 66.8333 89.6 74.6 88 75" stroke="black" stroke-width="6"/>
</svg>
