<svg width="93" height="89" viewBox="0 0 93 89" fill="none" xmlns="http://www.w3.org/2000/svg">
<path d="M62.4283 44C62.4283 52.1028 55.3565 59 46.2142 59C37.0719 59 30 52.1028 30 44C30 35.8972 37.0719 29 46.2142 29C55.3565 29 62.4283 35.8972 62.4283 44Z" stroke="black" stroke-width="6"/>
<ellipse cx="72.193" cy="19.5" rx="5.19301" ry="4.5" fill="black"/>
<path d="M89.2206 72C88.182 77 84.0276 86.6 75.7188 85H13.9219C10.1137 84.6667 2.6011 81.6 3.01654 72V16.5C2.84344 13.3333 4.78217 6.2 13.9219 3H74.1609C77.9691 3.16667 86.1048 5.8 88.182 15L88.7013 43.5" stroke="black" stroke-width="6"/>
<rect x="86" y="51" width="6" height="8" fill="#050505"/>
<path d="M89.5 63C89.6667 66.8333 89.6 74.6 88 75" stroke="black" stroke-width="6"/>
</svg>
