<svg width="113" height="97" viewBox="0 0 113 97" fill="none" xmlns="http://www.w3.org/2000/svg">
<path d="M24.21 36.89H21.21V39.89H24.21V36.89ZM24.21 30.59V27.59H21.21V30.59H24.21ZM32.54 30.59H35.54V27.59H32.54V30.59ZM32.54 36.89V39.89H35.54V36.89H32.54ZM24.84 77H21.84V80H24.84V77ZM24.84 49.63H27.84V46.63H24.84V49.63ZM19.8 49.63L16.8215 49.2711L16.4169 52.63H19.8V49.63ZM20.5 43.82V40.82H17.8398L17.5215 43.4611L20.5 43.82ZM32.47 43.82H35.47V40.82H32.47V43.82ZM32.47 77V80H35.47V77H32.47ZM27.21 36.89V30.59H21.21V36.89H27.21ZM24.21 33.59H32.54V27.59H24.21V33.59ZM29.54 30.59V36.89H35.54V30.59H29.54ZM32.54 33.89H24.21V39.89H32.54V33.89ZM27.84 77V49.63H21.84V77H27.84ZM24.84 46.63H19.8V52.63H24.84V46.63ZM22.7785 49.9888L23.4785 44.1788L17.5215 43.4611L16.8215 49.2711L22.7785 49.9888ZM20.5 46.82H32.47V40.82H20.5V46.82ZM29.47 43.82V77H35.47V43.82H29.47ZM32.47 74H24.84V80H32.47V74ZM41.3709 77H38.3709V80H41.3709V77ZM41.3709 43.82V40.82H38.3709V43.82H41.3709ZM48.3709 43.82L51.356 43.5215L51.0859 40.82H48.3709V43.82ZM48.7209 47.32L45.7358 47.6185L46.2776 53.0359L50.5679 49.6841L48.7209 47.32ZM54.0409 44.38L55.1221 47.1784L55.1387 47.172L55.1551 47.1654L54.0409 44.38ZM70.3509 46.13L68.2048 48.2262V48.2262L70.3509 46.13ZM73.2909 77V80H76.2909V77H73.2909ZM65.7309 77H62.7309V80H65.7309V77ZM64.1209 50.47L61.9996 52.5913L62.0232 52.6149L62.0473 52.6379L64.1209 50.47ZM53.1309 49.98L51.9771 47.2108L51.9631 47.2166L51.9492 47.2226L53.1309 49.98ZM49.0009 52.71L46.8796 50.5887L46.0009 51.4674V52.71H49.0009ZM49.0009 77V80H52.0009V77H49.0009ZM44.3709 77V43.82H38.3709V77H44.3709ZM41.3709 46.82H48.3709V40.82H41.3709V46.82ZM45.3858 44.1185L45.7358 47.6185L51.7061 47.0215L51.356 43.5215L45.3858 44.1185ZM50.5679 49.6841C51.7947 48.7256 53.3006 47.8822 55.1221 47.1784L52.9597 41.5816C50.6746 42.4645 48.6339 43.581 46.874 44.9559L50.5679 49.6841ZM55.1551 47.1654C56.8625 46.4825 58.7891 46.12 60.9709 46.12V40.12C58.1128 40.12 55.4194 40.5975 52.9268 41.5946L55.1551 47.1654ZM60.9709 46.12C64.8781 46.12 67.0481 47.042 68.2048 48.2262L72.4971 44.0338C69.7337 41.2047 65.6505 40.12 60.9709 40.12V46.12ZM68.2048 48.2262C69.3925 49.4422 70.2909 51.6518 70.2909 55.51H76.2909C76.2909 50.8749 75.2294 46.8311 72.4971 44.0338L68.2048 48.2262ZM70.2909 55.51V77H76.2909V55.51H70.2909ZM73.2909 74H65.7309V80H73.2909V74ZM68.7309 77V55.86H62.7309V77H68.7309ZM68.7309 55.86C68.7309 53.0329 68.1684 50.19 66.1946 48.3021L62.0473 52.6379C62.2201 52.8033 62.7309 53.5537 62.7309 55.86H68.7309ZM66.2423 48.3487C64.305 46.4115 61.2433 45.93 58.2409 45.93V51.93C61.0253 51.93 61.8835 52.4752 61.9996 52.5913L66.2423 48.3487ZM58.2409 45.93C56.097 45.93 54.0026 46.3668 51.9771 47.2108L54.2848 52.7492C55.6193 52.1932 56.9315 51.93 58.2409 51.93V45.93ZM51.9492 47.2226C50.0077 48.0546 48.3004 49.1679 46.8796 50.5887L51.1223 54.8313C51.9414 54.0121 52.9875 53.3054 54.3127 52.7374L51.9492 47.2226ZM46.0009 52.71V77H52.0009V52.71H46.0009ZM49.0009 74H41.3709V80H49.0009V74Z" fill="black"/>
<path d="M89.2206 80C88.182 85 84.0276 94.6 75.7188 93H13.9219C10.1137 92.6667 2.6011 89.6 3.01654 80V24.5C2.84344 21.3333 4.78217 14.2 13.9219 11H74.1609C77.9691 11.1667 86.1048 13.8 88.182 23L88.7013 51.5" stroke="black" stroke-width="6"/>
<rect x="86" y="59" width="6" height="8" fill="#050505"/>
<path d="M89.5 71C89.6667 74.8333 89.6 82.6 88 83" stroke="black" stroke-width="6"/>
</svg>
