<svg width="201" height="87" viewBox="0 0 201 87" fill="none" xmlns="http://www.w3.org/2000/svg">
<path d="M199 2H2V85H199V2Z" stroke="#FB9039" stroke-width="3"/>
<path d="M78.1017 14.0929L55 26.3429L78.1017 40.0929L91.6441 14.0929L102 40.0929" stroke="#081824" stroke-width="3"/>
<path d="M118.356 38.9497L143.092 27.9871L121.963 13" stroke="#081824" stroke-width="3"/>
<path d="M119 40.0929C119 33.4655 115.194 28.0929 110.5 28.0929C105.806 28.0929 102 33.4655 102 40.0929" stroke="#081824" stroke-width="3"/>
<line x1="18" y1="51.5" x2="178" y2="51.5" stroke="#FB9039"/>
<path d="M40.94 68L39.44 61.56H40.51L41.6 66.39L42.82 62.34V61.56H43.71L45.08 66.39L46.19 61.56H47.25L45.76 68H44.69L43.4 63.49L42.03 68H40.94ZM49.9695 68.1C49.1428 68.1 48.5028 67.8967 48.0495 67.49C47.5961 67.0833 47.3695 66.46 47.3695 65.62C47.3695 64.86 47.5628 64.26 47.9495 63.82C48.3361 63.38 48.9228 63.16 49.7095 63.16C50.4295 63.16 50.9695 63.35 51.3295 63.73C51.6961 64.1033 51.8795 64.5867 51.8795 65.18V66.06H48.4095C48.4628 66.52 48.6295 66.8367 48.9095 67.01C49.1895 67.1833 49.6161 67.27 50.1895 67.27C50.4295 67.27 50.6761 67.2467 50.9295 67.2C51.1828 67.1533 51.4028 67.0933 51.5895 67.02V67.82C51.3761 67.9133 51.1295 67.9833 50.8495 68.03C50.5761 68.0767 50.2828 68.1 49.9695 68.1ZM48.4095 65.35H50.9195V65.02C50.9195 64.6933 50.8295 64.44 50.6495 64.26C50.4695 64.0733 50.1661 63.98 49.7395 63.98C49.2328 63.98 48.8828 64.09 48.6895 64.31C48.5028 64.53 48.4095 64.8767 48.4095 65.35ZM55.5405 68.1C55.1939 68.1 54.8939 68.0533 54.6405 67.96C54.3872 67.8667 54.1539 67.7233 53.9405 67.53L53.8805 68H52.9405V61.26H54.0305V63.57C54.4439 63.2967 54.9405 63.16 55.5205 63.16C56.1939 63.16 56.7239 63.3533 57.1105 63.74C57.5039 64.12 57.7005 64.7367 57.7005 65.59C57.7005 66.45 57.5072 67.0833 57.1205 67.49C56.7339 67.8967 56.2072 68.1 55.5405 68.1ZM55.2505 67.28C55.7439 67.28 56.0905 67.14 56.2905 66.86C56.4972 66.58 56.6005 66.1567 56.6005 65.59C56.6005 65.0033 56.4905 64.59 56.2705 64.35C56.0505 64.11 55.7039 63.99 55.2305 63.99C54.7372 63.99 54.3372 64.1267 54.0305 64.4V66.78C54.3439 67.1133 54.7505 67.28 55.2505 67.28ZM61.0655 68V61.56H63.6755C64.6289 61.56 65.3355 61.8133 65.7955 62.32C66.2555 62.82 66.4855 63.6533 66.4855 64.82C66.4855 65.92 66.2589 66.7267 65.8055 67.24C65.3522 67.7467 64.6422 68 63.6755 68H61.0655ZM62.1555 67.16H63.5055C63.9255 67.16 64.2755 67.1 64.5555 66.98C64.8355 66.8533 65.0455 66.62 65.1855 66.28C65.3255 65.94 65.3955 65.4533 65.3955 64.82C65.3955 64.1867 65.3322 63.6967 65.2055 63.35C65.0789 63.0033 64.8755 62.76 64.5955 62.62C64.3222 62.48 63.9589 62.41 63.5055 62.41H62.1555V67.16ZM69.9597 68.1C69.133 68.1 68.493 67.8967 68.0397 67.49C67.5864 67.0833 67.3597 66.46 67.3597 65.62C67.3597 64.86 67.553 64.26 67.9397 63.82C68.3264 63.38 68.913 63.16 69.6997 63.16C70.4197 63.16 70.9597 63.35 71.3197 63.73C71.6864 64.1033 71.8697 64.5867 71.8697 65.18V66.06H68.3997C68.453 66.52 68.6197 66.8367 68.8997 67.01C69.1797 67.1833 69.6064 67.27 70.1797 67.27C70.4197 67.27 70.6664 67.2467 70.9197 67.2C71.173 67.1533 71.393 67.0933 71.5797 67.02V67.82C71.3664 67.9133 71.1197 67.9833 70.8397 68.03C70.5664 68.0767 70.273 68.1 69.9597 68.1ZM68.3997 65.35H70.9097V65.02C70.9097 64.6933 70.8197 64.44 70.6397 64.26C70.4597 64.0733 70.1564 63.98 69.7297 63.98C69.223 63.98 68.873 64.09 68.6797 64.31C68.493 64.53 68.3997 64.8767 68.3997 65.35ZM74.462 68.1C74.1353 68.1 73.822 68.0767 73.522 68.03C73.2286 67.9833 72.9853 67.9267 72.792 67.86V66.94C73.0186 67.0267 73.2686 67.0933 73.542 67.14C73.8153 67.1867 74.0753 67.21 74.322 67.21C74.6953 67.21 74.962 67.1767 75.122 67.11C75.282 67.0433 75.362 66.9133 75.362 66.72C75.362 66.58 75.312 66.47 75.212 66.39C75.1186 66.31 74.9753 66.2367 74.782 66.17C74.5953 66.1033 74.3553 66.0233 74.062 65.93C73.782 65.8367 73.5386 65.7367 73.332 65.63C73.1253 65.5167 72.9653 65.3733 72.852 65.2C72.7386 65.0267 72.682 64.8 72.682 64.52C72.682 64.0867 72.8386 63.7533 73.152 63.52C73.4653 63.28 73.9686 63.16 74.662 63.16C74.9353 63.16 75.1953 63.18 75.442 63.22C75.6886 63.26 75.8986 63.31 76.072 63.37V64.28C75.8853 64.2067 75.6786 64.15 75.452 64.11C75.232 64.07 75.0253 64.05 74.832 64.05C74.4853 64.05 74.222 64.08 74.042 64.14C73.8686 64.2 73.782 64.32 73.782 64.5C73.782 64.6867 73.872 64.82 74.052 64.9C74.2386 64.9733 74.5353 65.0767 74.942 65.21C75.3153 65.3233 75.612 65.4433 75.832 65.57C76.052 65.6967 76.2086 65.85 76.302 66.03C76.402 66.2033 76.452 66.43 76.452 66.71C76.452 67.1767 76.282 67.5267 75.942 67.76C75.602 67.9867 75.1086 68.1 74.462 68.1ZM77.9206 62.27V61.37H79.1106V62.27H77.9206ZM78.0106 68V64.09H77.2906L77.3906 63.26H79.1006V68H78.0106ZM80.3722 68V63.26H81.3722L81.4222 63.76C81.6355 63.5933 81.8889 63.4533 82.1822 63.34C82.4822 63.22 82.8122 63.16 83.1722 63.16C83.7855 63.16 84.2322 63.3033 84.5122 63.59C84.7922 63.8767 84.9322 64.3233 84.9322 64.93V68H83.8522V64.98C83.8522 64.6133 83.7755 64.3567 83.6222 64.21C83.4755 64.0633 83.1955 63.99 82.7822 63.99C82.5355 63.99 82.2922 64.04 82.0522 64.14C81.8189 64.24 81.6222 64.37 81.4622 64.53V68H80.3722ZM88.0734 69.76C87.7201 69.76 87.3668 69.7367 87.0134 69.69C86.6601 69.65 86.3601 69.5867 86.1134 69.5V68.66C86.3801 68.7467 86.6868 68.8133 87.0334 68.86C87.3801 68.9067 87.7101 68.93 88.0234 68.93C88.5034 68.93 88.8534 68.9033 89.0734 68.85C89.2934 68.7967 89.4034 68.6767 89.4034 68.49C89.4034 68.35 89.3501 68.25 89.2434 68.19C89.1368 68.1367 88.9334 68.11 88.6334 68.11H87.3534C86.4934 68.11 86.0634 67.8067 86.0634 67.2C86.0634 67.0067 86.1201 66.8267 86.2334 66.66C86.3468 66.4933 86.5268 66.3667 86.7734 66.28C86.5001 66.1467 86.2968 65.9633 86.1634 65.73C86.0368 65.4967 85.9734 65.2167 85.9734 64.89C85.9734 64.2833 86.1534 63.8433 86.5134 63.57C86.8801 63.2967 87.4268 63.16 88.1534 63.16C88.3068 63.16 88.4668 63.1733 88.6334 63.2C88.8001 63.22 88.9301 63.24 89.0234 63.26H90.7634L90.7334 63.97H89.9334C90.0601 64.0767 90.1534 64.21 90.2134 64.37C90.2734 64.53 90.3034 64.7033 90.3034 64.89C90.3034 65.3967 90.1501 65.7967 89.8434 66.09C89.5368 66.3767 89.0734 66.52 88.4534 66.52C88.3468 66.52 88.2468 66.5167 88.1534 66.51C88.0668 66.4967 87.9701 66.4833 87.8634 66.47C87.6634 66.49 87.4834 66.5433 87.3234 66.63C87.1634 66.7167 87.0834 66.8333 87.0834 66.98C87.0834 67.08 87.1234 67.1533 87.2034 67.2C87.2834 67.24 87.4168 67.26 87.6034 67.26H88.9334C89.4068 67.26 89.7701 67.3633 90.0234 67.57C90.2834 67.77 90.4134 68.0633 90.4134 68.45C90.4134 68.9167 90.2101 69.25 89.8034 69.45C89.4034 69.6567 88.8268 69.76 88.0734 69.76ZM88.1534 65.83C88.5868 65.83 88.8868 65.7567 89.0534 65.61C89.2268 65.4633 89.3134 65.2133 89.3134 64.86C89.3134 64.5067 89.2268 64.25 89.0534 64.09C88.8868 63.93 88.5868 63.85 88.1534 63.85C87.7468 63.85 87.4501 63.9267 87.2634 64.08C87.0768 64.2333 86.9834 64.4933 86.9834 64.86C86.9834 65.2 87.0701 65.4467 87.2434 65.6C87.4234 65.7533 87.7268 65.83 88.1534 65.83ZM93.9929 68.1C93.1662 68.1 92.5262 67.8967 92.0729 67.49C91.6196 67.0833 91.3929 66.46 91.3929 65.62C91.3929 64.86 91.5862 64.26 91.9729 63.82C92.3596 63.38 92.9462 63.16 93.7329 63.16C94.4529 63.16 94.9929 63.35 95.3529 63.73C95.7196 64.1033 95.9029 64.5867 95.9029 65.18V66.06H92.4329C92.4862 66.52 92.6529 66.8367 92.9329 67.01C93.2129 67.1833 93.6396 67.27 94.2129 67.27C94.4529 67.27 94.6996 67.2467 94.9529 67.2C95.2062 67.1533 95.4262 67.0933 95.6129 67.02V67.82C95.3996 67.9133 95.1529 67.9833 94.8729 68.03C94.5996 68.0767 94.3062 68.1 93.9929 68.1ZM92.4329 65.35H94.9429V65.02C94.9429 64.6933 94.8529 64.44 94.6729 64.26C94.4929 64.0733 94.1896 63.98 93.7629 63.98C93.2562 63.98 92.9062 64.09 92.7129 64.31C92.5262 64.53 92.4329 64.8767 92.4329 65.35ZM96.964 68V63.26H97.964L98.024 63.81C98.2507 63.6633 98.5207 63.53 98.834 63.41C99.1473 63.29 99.4573 63.2067 99.764 63.16V63.99C99.5773 64.0233 99.374 64.0733 99.154 64.14C98.9407 64.2 98.7373 64.27 98.544 64.35C98.3507 64.4233 98.1873 64.5 98.054 64.58V68H96.964ZM104.962 68.1C104.269 68.1 103.712 67.95 103.292 67.65C102.872 67.3433 102.662 66.9367 102.662 66.43C102.662 65.9767 102.796 65.5933 103.062 65.28C103.336 64.9667 103.706 64.6833 104.172 64.43C103.912 64.1967 103.702 63.9667 103.542 63.74C103.389 63.5133 103.312 63.2467 103.312 62.94C103.312 62.52 103.462 62.17 103.762 61.89C104.062 61.6033 104.476 61.46 105.002 61.46C105.522 61.46 105.929 61.5967 106.222 61.87C106.522 62.1367 106.672 62.4933 106.672 62.94C106.672 63.2867 106.589 63.5833 106.422 63.83C106.256 64.0767 105.989 64.32 105.622 64.56L107.102 66.07C107.209 65.8433 107.262 65.5767 107.262 65.27V65.1H108.092V65.29C108.092 65.5433 108.059 65.7933 107.992 66.04C107.926 66.28 107.836 66.49 107.722 66.67L108.532 67.49L107.872 68.09L107.152 67.37C106.906 67.6233 106.596 67.81 106.222 67.93C105.849 68.0433 105.429 68.1 104.962 68.1ZM104.942 64.09C105.229 63.9033 105.442 63.7367 105.582 63.59C105.722 63.4433 105.792 63.2433 105.792 62.99C105.792 62.7567 105.729 62.5733 105.602 62.44C105.482 62.3 105.282 62.23 105.002 62.23C104.716 62.23 104.509 62.3033 104.382 62.45C104.256 62.5967 104.192 62.7767 104.192 62.99C104.192 63.1967 104.252 63.3833 104.372 63.55C104.499 63.71 104.689 63.89 104.942 64.09ZM104.962 67.34C105.629 67.34 106.139 67.15 106.492 66.77L104.822 65.08C104.449 65.2333 104.169 65.4167 103.982 65.63C103.802 65.8367 103.712 66.0967 103.712 66.41C103.712 66.7167 103.829 66.95 104.062 67.11C104.296 67.2633 104.596 67.34 104.962 67.34ZM111.847 68V61.56H114.457C115.41 61.56 116.117 61.8133 116.577 62.32C117.037 62.82 117.267 63.6533 117.267 64.82C117.267 65.92 117.04 66.7267 116.587 67.24C116.133 67.7467 115.423 68 114.457 68H111.847ZM112.937 67.16H114.287C114.707 67.16 115.057 67.1 115.337 66.98C115.617 66.8533 115.827 66.62 115.967 66.28C116.107 65.94 116.177 65.4533 116.177 64.82C116.177 64.1867 116.113 63.6967 115.987 63.35C115.86 63.0033 115.657 62.76 115.377 62.62C115.103 62.48 114.74 62.41 114.287 62.41H112.937V67.16ZM120.741 68.1C119.914 68.1 119.274 67.8967 118.821 67.49C118.368 67.0833 118.141 66.46 118.141 65.62C118.141 64.86 118.334 64.26 118.721 63.82C119.108 63.38 119.694 63.16 120.481 63.16C121.201 63.16 121.741 63.35 122.101 63.73C122.468 64.1033 122.651 64.5867 122.651 65.18V66.06H119.181C119.234 66.52 119.401 66.8367 119.681 67.01C119.961 67.1833 120.388 67.27 120.961 67.27C121.201 67.27 121.448 67.2467 121.701 67.2C121.954 67.1533 122.174 67.0933 122.361 67.02V67.82C122.148 67.9133 121.901 67.9833 121.621 68.03C121.348 68.0767 121.054 68.1 120.741 68.1ZM119.181 65.35H121.691V65.02C121.691 64.6933 121.601 64.44 121.421 64.26C121.241 64.0733 120.938 63.98 120.511 63.98C120.004 63.98 119.654 64.09 119.461 64.31C119.274 64.53 119.181 64.8767 119.181 65.35ZM124.835 68L122.965 63.26H124.095L125.425 66.94L126.755 63.26H127.875L126.015 68H124.835ZM130.8 68.1C129.973 68.1 129.333 67.8967 128.88 67.49C128.426 67.0833 128.2 66.46 128.2 65.62C128.2 64.86 128.393 64.26 128.78 63.82C129.166 63.38 129.753 63.16 130.54 63.16C131.26 63.16 131.8 63.35 132.16 63.73C132.526 64.1033 132.71 64.5867 132.71 65.18V66.06H129.24C129.293 66.52 129.46 66.8367 129.74 67.01C130.02 67.1833 130.446 67.27 131.02 67.27C131.26 67.27 131.506 67.2467 131.76 67.2C132.013 67.1533 132.233 67.0933 132.42 67.02V67.82C132.206 67.9133 131.96 67.9833 131.68 68.03C131.406 68.0767 131.113 68.1 130.8 68.1ZM129.24 65.35H131.75V65.02C131.75 64.6933 131.66 64.44 131.48 64.26C131.3 64.0733 130.996 63.98 130.57 63.98C130.063 63.98 129.713 64.09 129.52 64.31C129.333 64.53 129.24 64.8767 129.24 65.35ZM134.951 68.1C134.564 68.1 134.271 68.0067 134.071 67.82C133.871 67.6267 133.771 67.31 133.771 66.87V61.26H134.861V66.77C134.861 66.9567 134.894 67.0833 134.961 67.15C135.027 67.2167 135.127 67.25 135.261 67.25C135.421 67.25 135.574 67.23 135.721 67.19V67.98C135.594 68.0267 135.471 68.0567 135.351 68.07C135.237 68.09 135.104 68.1 134.951 68.1ZM138.843 68.1C137.99 68.1 137.363 67.8867 136.963 67.46C136.57 67.0333 136.373 66.4233 136.373 65.63C136.373 64.8367 136.573 64.2267 136.973 63.8C137.373 63.3733 137.997 63.16 138.843 63.16C139.697 63.16 140.323 63.3733 140.723 63.8C141.123 64.2267 141.323 64.8367 141.323 65.63C141.323 66.4233 141.123 67.0333 140.723 67.46C140.33 67.8867 139.703 68.1 138.843 68.1ZM138.843 67.18C139.343 67.18 139.697 67.06 139.903 66.82C140.117 66.5733 140.223 66.1767 140.223 65.63C140.223 65.0833 140.117 64.69 139.903 64.45C139.697 64.21 139.343 64.09 138.843 64.09C138.35 64.09 137.997 64.21 137.783 64.45C137.577 64.69 137.473 65.0833 137.473 65.63C137.473 66.1767 137.577 66.5733 137.783 66.82C137.997 67.06 138.35 67.18 138.843 67.18ZM142.384 70.16V63.26H143.324L143.384 63.73C143.597 63.5367 143.831 63.3933 144.084 63.3C144.337 63.2067 144.637 63.16 144.984 63.16C145.664 63.16 146.194 63.3467 146.574 63.72C146.954 64.0867 147.144 64.6967 147.144 65.55C147.144 66.4033 146.947 67.0433 146.554 67.47C146.161 67.89 145.624 68.1 144.944 68.1C144.371 68.1 143.881 67.9667 143.474 67.7V70.16H142.384ZM144.664 67.28C145.584 67.28 146.044 66.7 146.044 65.54C146.044 64.98 145.941 64.5833 145.734 64.35C145.527 64.11 145.181 63.99 144.694 63.99C144.207 63.99 143.801 64.1567 143.474 64.49V66.86C143.627 66.9867 143.797 67.09 143.984 67.17C144.177 67.2433 144.404 67.28 144.664 67.28ZM150.604 68.1C149.778 68.1 149.138 67.8967 148.684 67.49C148.231 67.0833 148.004 66.46 148.004 65.62C148.004 64.86 148.198 64.26 148.584 63.82C148.971 63.38 149.558 63.16 150.344 63.16C151.064 63.16 151.604 63.35 151.964 63.73C152.331 64.1033 152.514 64.5867 152.514 65.18V66.06H149.044C149.098 66.52 149.264 66.8367 149.544 67.01C149.824 67.1833 150.251 67.27 150.824 67.27C151.064 67.27 151.311 67.2467 151.564 67.2C151.818 67.1533 152.038 67.0933 152.224 67.02V67.82C152.011 67.9133 151.764 67.9833 151.484 68.03C151.211 68.0767 150.918 68.1 150.604 68.1ZM149.044 65.35H151.554V65.02C151.554 64.6933 151.464 64.44 151.284 64.26C151.104 64.0733 150.801 63.98 150.374 63.98C149.868 63.98 149.518 64.09 149.324 64.31C149.138 64.53 149.044 64.8767 149.044 65.35ZM153.575 68V63.26H154.575L154.635 63.81C154.862 63.6633 155.132 63.53 155.445 63.41C155.759 63.29 156.069 63.2067 156.375 63.16V63.99C156.189 64.0233 155.985 64.0733 155.765 64.14C155.552 64.2 155.349 64.27 155.155 64.35C154.962 64.4233 154.799 64.5 154.665 64.58V68H153.575Z" fill="black"/>
</svg>
