<svg width="346" height="247" viewBox="0 0 346 247" fill="none" xmlns="http://www.w3.org/2000/svg">
<path d="M221 195V32C221 17.0883 208.912 5 194 5H32C17.0883 5 5 17.0883 5 32V195" stroke="#023047" stroke-width="10"/>
<path d="M10 190H54" stroke="#023047" stroke-width="10"/>
<path d="M130 195.5H215.5" stroke="#023047" stroke-width="10"/>
<path d="M132 206.5C132 225.724 114.937 242 93 242C71.0626 242 54 225.724 54 206.5C54 187.276 71.0626 171 93 171C114.937 171 132 187.276 132 206.5Z" stroke="#023047" stroke-width="10"/>
<path d="M119.5 68.5V106H141" stroke="#023047" stroke-width="10"/>
<path d="M173 91C173 120.152 148.721 144 118.5 144C88.2794 144 64 120.152 64 91C64 61.8485 88.2794 38 118.5 38C148.721 38 173 61.8485 173 91Z" stroke="#023047" stroke-width="10"/>
<path d="M299 206.5C299 222.971 284.391 237 265.5 237C246.609 237 232 222.971 232 206.5C232 190.029 246.609 176 265.5 176C284.391 176 299 190.029 299 206.5Z" stroke="#023047" stroke-width="10"/>
<path d="M220 50V197" stroke="#023047" stroke-width="10"/>
<path d="M321 128V192.5V113" stroke="#023047" stroke-width="10"/>
<path d="M220.5 196.5H232H216" stroke="#023047" stroke-width="10"/>
<path d="M297 196.5H321.5H325" stroke="#023047" stroke-width="10"/>
<path d="M325 196.5H346" stroke="#023047" stroke-width="10"/>
<path d="M223.5 56H255.5L315 110L317.5 112.5L320 114.5V123.5H221" stroke="#023047" stroke-width="10"/>
</svg>
