<svg width="113" height="111" viewBox="0 0 113 111" fill="none" xmlns="http://www.w3.org/2000/svg">
<rect x="39" width="2" height="2" fill="white"/>
<path d="M35.5 43.5L51.3982 46.6411C52.5648 31.4745 62.1982 6.24114 91.3982 26.6411C94.0648 25.9745 100.498 23.9411 104.898 21.1411C103.898 24.4745 101.198 31.3411 98.3982 32.1411L107.898 30.6411C106.065 33.3078 101.598 39.2411 98.3982 41.6411C95.7315 73.1411 72.7982 128.941 2.39816 100.141C8.73149 100.141 22.8982 98.2411 28.8982 90.6411C22.7315 88.4745 10.3982 82.1411 10.3982 74.1411H18.8982C12.5648 71.1411 0.398157 62.5411 2.39816 52.1411H10.3982C5.23149 48.3078 -2.90184 37.4411 5.89816 24.6411C9.09878 28.2608 16.4 35.7 20 36.5" stroke="#020202" stroke-width="4"/>
<circle cx="28" cy="40" r="2" fill="black"/>
<circle cx="78" cy="80" r="2" fill="black"/>
<ellipse cx="57.6494" cy="96.0122" rx="2.04354" ry="2.5" transform="rotate(84.9198 57.6494 96.0122)" fill="black"/>
<ellipse cx="74.1252" cy="84.7367" rx="2.11747" ry="2.94465" transform="rotate(24.1897 74.1252 84.7367)" fill="black"/>
<path d="M74.5 84C72.8333 88 67 96 57 96" stroke="#020202" stroke-width="4"/>
</svg>
