<svg width="113" height="113" viewBox="0 0 113 113" fill="none" xmlns="http://www.w3.org/2000/svg">
<rect x="40" width="2" height="2" fill="white"/>
<path d="M28.8982 92.6411C22.8982 100.241 8.73149 102.141 2.39816 102.141C72.7981 130.941 95.7315 75.1411 98.3982 43.6411C101.598 41.2411 106.065 35.3078 107.898 32.6411L98.3982 34.1411C101.198 33.3411 103.898 26.4745 104.898 23.1411C100.498 25.9411 94.0648 27.9745 91.3982 28.6411C62.1982 8.24114 52.5648 33.4745 51.3982 48.6411L36.8982 46.6411L18.8982 38.1411L5.89816 26.6411C-2.90184 39.4411 5.23149 50.3078 10.3982 54.1411H2.39816C0.398157 64.5411 12.5648 73.1411 18.8982 76.1411H10.3982C10.3982 84.1411 22.7315 90.4745 28.8982 92.6411Z" stroke="#020202" stroke-width="4"/>
<ellipse cx="28.9505" cy="42.6437" rx="4.98327" ry="9.75863" transform="rotate(-64.9729 28.9505 42.6437)" fill="white"/>
<circle cx="28" cy="43" r="2" fill="black"/>
<circle cx="79" cy="80" r="2" fill="black"/>
<ellipse cx="58.6494" cy="96.0122" rx="2.04354" ry="2.5" transform="rotate(84.9198 58.6494 96.0122)" fill="black"/>
<ellipse cx="75.1252" cy="84.7367" rx="2.11747" ry="2.94465" transform="rotate(24.1897 75.1252 84.7367)" fill="black"/>
<path d="M75.5 84C73.8333 88 68 96 58 96" stroke="#020202" stroke-width="4"/>
</svg>
